<svg xmlns="http://www.w3.org/2000/svg" viewBox="0 0 69.9 152.88">
  <defs>
    <style>.a,.d{fill:#1c1918;}.a{opacity:0.1;}.b{fill:#16333c;}.c{fill:#333030;}.e{fill:#6d6d6d;}.f{fill:#d69f8a;}.g{fill:#e6f9ff;}.h{fill:#adadad;}.i{fill:#d8cac7;}.j{fill:#d8eaef;}.k{fill:#ffbfa1;}.l{fill:#664032;}.m{fill:#fff;}.n{fill:#222228;}</style>
  </defs>
  <ellipse class="a" cx="33.75" cy="149.71" rx="31.78" ry="3.17" />
  <polygon class="b" points="26.14 137.99 24.8 146.04 21.67 146.04 22.72 137.29 26.14 137.99" />
  <path class="c" d="M20.73,142.23a10,10,0,0,1-4.49,3.13c-2.71.81-5.15,1.85-5,3.48,0,0,4,2,10.57-.22v.69l4.29-.19v-5.7l-3.57.25.27-.56Z" />
  <path class="d" d="M19,148.7c-5.85,1.5-7.34-.17-7.68-.28a1.2,1.2,0,0,0,0,.42s4,2,10.57-.22v.69l4.29-.19V148A21.41,21.41,0,0,0,19,148.7Z" />
  <path class="d" d="M21.32,145.55a.21.21,0,0,1-.16-.08,4.44,4.44,0,0,0-1.87-1.69.18.18,0,0,1-.11-.24.19.19,0,0,1,.24-.11,4.74,4.74,0,0,1,2.06,1.83.19.19,0,0,1-.06.26A.17.17,0,0,1,21.32,145.55Z" />
  <path class="d" d="M20.34,146a.21.21,0,0,1-.16-.08,4.28,4.28,0,0,0-1.87-1.68.19.19,0,0,1-.11-.25.19.19,0,0,1,.24-.11,4.69,4.69,0,0,1,2,1.83.18.18,0,0,1,0,.26A.19.19,0,0,1,20.34,146Z" />
  <path class="d" d="M19.36,146.43a.18.18,0,0,1-.16-.09,4.45,4.45,0,0,0-1.87-1.68.19.19,0,0,1-.12-.24.18.18,0,0,1,.24-.11,4.62,4.62,0,0,1,2.06,1.82.18.18,0,0,1-.05.26A.14.14,0,0,1,19.36,146.43Z" />
  <polygon class="b" points="40.74 137.99 42.08 146.04 45.2 146.04 44.16 137.29 40.74 137.99" />
  <path class="c" d="M46.15,142.23a10,10,0,0,0,4.49,3.13c2.71.81,5.45,1.85,5.25,3.48,0,0-4.32,2-10.86-.22v.69l-4.29-.19v-5.7l3.56.25-.26-.56Z" />
  <path class="d" d="M48.76,149a13.79,13.79,0,0,0,7.1-.57,1,1,0,0,1,0,.42s-4.32,2-10.86-.22v.69l-4.29-.19v-1.43C42.27,147.78,44.82,148.37,48.76,149Z" />
  <path class="d" d="M45.56,145.55a.21.21,0,0,0,.16-.08,4.38,4.38,0,0,1,1.87-1.69.18.18,0,0,0,.11-.24.19.19,0,0,0-.24-.11,4.69,4.69,0,0,0-2.06,1.83.19.19,0,0,0,.05.26A.23.23,0,0,0,45.56,145.55Z" />
  <path class="d" d="M46.54,146a.21.21,0,0,0,.16-.08,4.28,4.28,0,0,1,1.87-1.68.19.19,0,0,0,.11-.25.19.19,0,0,0-.24-.11,4.74,4.74,0,0,0-2.06,1.83.19.19,0,0,0,.06.26A.17.17,0,0,0,46.54,146Z" />
  <path class="d" d="M47.52,146.43a.19.19,0,0,0,.16-.09,4.39,4.39,0,0,1,1.87-1.68.18.18,0,0,0,.11-.24.18.18,0,0,0-.24-.11,4.63,4.63,0,0,0-2.05,1.82.18.18,0,0,0,.05.26A.14.14,0,0,0,47.52,146.43Z" />
  <path class="e" d="M26.9,73.66l-3.25,38.88L20.38,141s1.59,2.18,7.52,1.19l4.45-27.88,3.56-26.5h2l1.68,54.38s2.58,2,7.32.2l-.59-70Z" />
  <polygon class="f" points="37.88 35.21 37.62 46.25 30.96 43.28 31.17 31.91 37.88 35.21" />
  <path class="g" d="M48.6,43.4S48,63.16,46.68,73.19A30.55,30.55,0,0,1,34,75.06c-5.5-.23-7.09-1.4-7.09-1.4l-9-33.37a72.77,72.77,0,0,1,13.46-1l3.89,3.6s1.06-2.8,3.14-3.35c3.17.21,6.62.59,10.31,1.2Z" />
  <path class="d" d="M43.78,75.09a9.77,9.77,0,0,0,2.51-.84c.49-.16.42.31.48.81.07.67,0,1-.48,1.16a5.8,5.8,0,0,1-2.14.83C44,76.4,43.9,75.74,43.78,75.09Z" />
  <path class="d" d="M31.78,75.62a51.92,51.92,0,0,0,6.11.17,31,31,0,0,0,4.51-.44,9.22,9.22,0,0,0,.16,2,29.19,29.19,0,0,1-4.63.47c-.72,0-1.42,0-2.11,0-1.54,0-3-.11-4.29-.26A9.32,9.32,0,0,0,31.78,75.62Z" />
  <path class="d" d="M26.32,75.46c.09-.5.15-.95.64-.78a19.82,19.82,0,0,0,3.6.81c0,.65-.14,1.29-.24,1.94a20.38,20.38,0,0,1-3.77-1C26.21,76.35,26.22,76,26.32,75.46Z" />
  <path class="h" d="M34.84,75.49l-.05,2.64,4.33-.21.05-2.46Zm.72.44h2.86l0,1.62-2.86.14Z" />
  <polygon class="i" points="35.26 42.85 34.25 39.34 32.01 40.37 35.26 42.85" />
  <polygon class="i" points="35.55 39.65 35.26 42.85 37.09 40.58 35.55 39.65" />
  <path class="b" d="M33.59,40.57a8.47,8.47,0,0,0,2.63.1l1.24,1.47L36.37,43.7l4.24,24.69-3.26,3.28-4-2.85.92-24.94L32.92,42Z" />
  <polygon class="j" points="40.6 39.44 37.86 43.14 35.55 39.65 39.18 37.23 40.6 39.44" />
  <polygon class="j" points="28.84 38.95 32.32 42.93 34.25 39.34 30.23 36.74 28.84 38.95" />
  <path class="k" d="M32.34,7.7c-6.33,1.45-6.16,5.79-6.16,5.79s.2,3.36.33,7.35a2.11,2.11,0,0,0-2.6-.71c-2.15.93-.56,7.71,2.72,7.12a16.21,16.21,0,0,0,.56,3.88c.92,1.93,5,4.87,8.55,5.33s8.08-1.93,8.08-6.16.09-18,.09-18S42.81,5.32,32.34,7.7Z" />
  <path class="f" d="M38.17,19.92c.44,1.17.87,2.33,1.34,3.46a11.26,11.26,0,0,0,1.8,3.13l.13.14-.13.1c-.51.4-1,.8-1.58,1.16.44-.48.9-.95,1.37-1.4v.24a5.19,5.19,0,0,1-1.19-1.5,9.17,9.17,0,0,1-.8-1.71A15.56,15.56,0,0,1,38.17,19.92Z" />
  <path class="l" d="M35.83,16.71a16.58,16.58,0,0,0-2.66-.24,3.56,3.56,0,0,0-1.16.26,5.66,5.66,0,0,0-1.14.71,2.11,2.11,0,0,1,.74-1.33,2.55,2.55,0,0,1,1.5-.58,3.36,3.36,0,0,1,1.52.29A3.09,3.09,0,0,1,35.83,16.71Z" />
  <path class="l" d="M39.6,16.71a2.34,2.34,0,0,1,.94-.85,2.4,2.4,0,0,1,1.31-.27,1.83,1.83,0,0,1,1.24.65,1.89,1.89,0,0,1,.46,1.2,8.13,8.13,0,0,0-.9-.71,1.85,1.85,0,0,0-.89-.3A7.44,7.44,0,0,0,39.6,16.71Z" />
  <path class="m" d="M31.66,28.75l8.46.44S35.71,34.83,31.66,28.75Z" />
  <path class="l" d="M24.58,19.92s-.33-7.35-.6-8.08-2.11-.64-2.11-.64.64-7.91,8.36-8.27A5.88,5.88,0,0,0,24.9,4.4,10.84,10.84,0,0,1,36.84.45s4.87,1.19,5.51,4A6.44,6.44,0,0,0,38.77.26s6.43,2,6.43,7c0,3.95-1.38,4.68-1.38,4.68s-1.38.92-4.68-.87S31.33,9.27,30,10.28s-1.06,4-1.06,4a2.1,2.1,0,0,1-1.05,1.93l-.05,7.4-1.15-.05-.13-2.07A2,2,0,0,0,24.58,19.92Z" />
  <path class="f" d="M24.21,21.3c1.12-.57,2.11,1.24,2.16,3.17-.92-.14-1.08.93-.56,1.69C24,26.54,23,21.9,24.21,21.3Z" />
  <path class="n" d="M39.74,22a3.7,3.7,0,0,1,.12-1.68,2.17,2.17,0,0,1,.47-.81,1.21,1.21,0,0,1,1-.36,1.43,1.43,0,0,1,.91.44,1.85,1.85,0,0,1,.44.84,3,3,0,0,1-.12,1.69,6.35,6.35,0,0,0-.38-1.53,1.12,1.12,0,0,0-.91-.77c-.36-.07-.67.27-.91.71A9.82,9.82,0,0,0,39.74,22Z" />
  <path class="n" d="M32.33,21.56a3.66,3.66,0,0,1,0-1.68,2.17,2.17,0,0,1,.39-.85,1.22,1.22,0,0,1,1-.45,1.51,1.51,0,0,1,1,.35,1.8,1.8,0,0,1,.5.8,3,3,0,0,1,0,1.7,6.37,6.37,0,0,0-.52-1.49,1.13,1.13,0,0,0-1-.69c-.36,0-.63.33-.84.79A10.43,10.43,0,0,0,32.33,21.56Z" />
  <path class="k" d="M7.7,38.5A121.12,121.12,0,0,0,14,24.81l-2.43-2.33S-2.86,37.38.51,43.45C6.92,52.09,7.7,38.5,7.7,38.5Z" />
  <path class="g" d="M7.7,39.08s13.64.79,14.56,1.36c6.69,4.17,2,7.77,2,7.77L3.51,45.9Z" />
  <polygon class="j" points="9 39.06 6.42 47.19 2.75 46.82 7.7 38.5 9 39.06" />
  <path class="k" d="M11.58,22.48s3.06-4.69,4.88-4.47,3.5,4.08,2,6.12-2.63-.73-2.63-.73-1.38,3.5-3,1.24S11.58,22.48,11.58,22.48Z" />
  <path class="k" d="M62.2,38.5a121.12,121.12,0,0,1-6.31-13.69l2.43-2.33s14.44,14.9,11.06,21C63,52.09,62.2,38.5,62.2,38.5Z" />
  <path class="g" d="M62.2,39.08s-13.64.79-14.57,1.36c-6.68,4.17-2,7.77-2,7.77L66.38,45.9Z" />
  <polygon class="j" points="60.9 39.06 63.48 47.19 67.14 46.82 62.2 38.5 60.9 39.06" />
  <path class="k" d="M58.32,22.48S55.26,17.79,53.44,18s-3.5,4.08-2,6.12,2.62-.73,2.62-.73,1.39,3.5,3,1.24S58.32,22.48,58.32,22.48Z" />
</svg>